<?xml version="1.0" encoding="utf-8"?>
<svg version="1.1" id="RU_Download_on_the" xmlns="http://www.w3.org/2000/svg" xmlns:xlink="http://www.w3.org/1999/xlink" x="0px"
	 y="0px" viewBox="0 0 41.3 29.6" style="enable-background:new 0 0 41.3 29.6;" xml:space="preserve">
<style type="text/css">
	.st0{fill:#ababab;}
</style>
<path class="st0" d="M39.8,13.2H5.1L15.7,2.6c0.6-0.6,0.6-1.5,0-2.1c-0.6-0.6-1.5-0.6-2.1,0L0.4,13.7c0,0,0,0,0,0l0,0c0,0,0,0,0,0
	c-0.1,0.1-0.2,0.3-0.3,0.5c0,0,0,0,0,0C0,14.3,0,14.5,0,14.7c0,0,0,0,0,0c0,0,0,0,0,0c0,0.2,0,0.4,0.1,0.5c0,0,0,0,0,0
	c0.1,0.2,0.2,0.3,0.3,0.5c0,0,0,0,0,0l0,0c0,0,0,0,0,0l13.1,13.3c0.3,0.3,0.7,0.4,1.1,0.4c0.4,0,0.8-0.1,1.1-0.4
	c0.6-0.6,0.6-1.5,0-2.1L5.1,16.2h34.7c0.8,0,1.5-0.7,1.5-1.5S40.6,13.2,39.8,13.2z"/>
</svg>
